<svg width="57" height="57" viewBox="0 0 57 57" fill="none" xmlns="http://www.w3.org/2000/svg">
<g clip-path="url(#clip0_35_10)">
<path fill-rule="evenodd" clip-rule="evenodd" d="M42.7501 4.75C43.9484 4.74962 45.1026 5.20222 45.9814 6.01706C46.8601 6.8319 47.3983 7.94876 47.4882 9.14375L47.5001 9.5V47.5C47.5004 48.6984 47.0478 49.8526 46.233 50.7313C45.4182 51.61 44.3013 52.1483 43.1063 52.2381L42.7501 52.25H14.2501C13.0517 52.2504 11.8975 51.7978 11.0188 50.9829C10.14 50.1681 9.60181 49.0512 9.51193 47.8563L9.50005 47.5V45.125C8.89472 45.1243 8.31248 44.8925 7.8723 44.477C7.43213 44.0614 7.16725 43.4935 7.13177 42.8892C7.09629 42.2849 7.29291 41.6898 7.68143 41.2256C8.06996 40.7614 8.62108 40.4631 9.22218 40.3916L9.50005 40.375V35.625C8.89472 35.6243 8.31248 35.3925 7.8723 34.977C7.43213 34.5614 7.16725 33.9935 7.13177 33.3892C7.09629 32.7849 7.29291 32.1898 7.68143 31.7256C8.06996 31.2614 8.62108 30.9631 9.22218 30.8916L9.50005 30.875V26.125C8.89472 26.1243 8.31248 25.8925 7.8723 25.477C7.43213 25.0614 7.16725 24.4935 7.13177 23.8892C7.09629 23.2849 7.29291 22.6898 7.68143 22.2256C8.06996 21.7614 8.62108 21.4631 9.22218 21.3916L9.50005 21.375V16.625C8.89472 16.6243 8.31248 16.3925 7.8723 15.977C7.43213 15.5614 7.16725 14.9935 7.13177 14.3892C7.09629 13.7849 7.29291 13.1898 7.68143 12.7256C8.06996 12.2614 8.62108 11.9631 9.22218 11.8916L9.50005 11.875V9.5C9.49968 8.30163 9.95227 7.1474 10.7671 6.2687C11.5819 5.38999 12.6988 4.85175 13.8938 4.76188L14.2501 4.75H42.7501ZM42.7501 9.5H14.2501V47.5H42.7501V9.5ZM36.8126 14.25C37.6982 14.25 38.552 14.5799 39.2076 15.1753C39.8631 15.7708 40.2734 16.589 40.3584 17.4705L40.3751 17.8125V22.5625C40.375 23.4481 40.0451 24.3019 39.4497 24.9575C38.8543 25.6131 38.0361 26.0234 37.1546 26.1084L36.8126 26.125H20.1876C19.302 26.125 18.4481 25.7951 17.7926 25.1997C17.137 24.6042 16.7267 23.786 16.6417 22.9045L16.6251 22.5625V17.8125C16.6251 16.9269 16.955 16.0731 17.5504 15.4175C18.1458 14.7619 18.964 14.3516 19.8456 14.2666L20.1876 14.25H36.8126ZM35.6251 19H21.3751V21.375H35.6251V19Z" fill="white"/>
</g>
<defs>
<clipPath id="clip0_35_10">
<rect width="57" height="57" fill="white"/>
</clipPath>
</defs>
</svg>
