<svg width="63" height="63" viewBox="0 0 63 63" fill="none" xmlns="http://www.w3.org/2000/svg">
<g clip-path="url(#clip0_35_4)">
<path d="M18.7031 9.84375V3.9375C18.7031 3.15428 19.0143 2.40314 19.5681 1.84933C20.1219 1.29551 20.873 0.984375 21.6563 0.984375C22.4395 0.984375 23.1906 1.29551 23.7444 1.84933C24.2983 2.40314 24.6094 3.15428 24.6094 3.9375V9.84375C24.6094 10.627 24.2983 11.3781 23.7444 11.9319C23.1906 12.4857 22.4395 12.7969 21.6563 12.7969C20.873 12.7969 20.1219 12.4857 19.5681 11.9319C19.0143 11.3781 18.7031 10.627 18.7031 9.84375ZM31.5 12.7969C32.2832 12.7969 33.0344 12.4857 33.5882 11.9319C34.142 11.3781 34.4531 10.627 34.4531 9.84375V3.9375C34.4531 3.15428 34.142 2.40314 33.5882 1.84933C33.0344 1.29551 32.2832 0.984375 31.5 0.984375C30.7168 0.984375 29.9657 1.29551 29.4118 1.84933C28.858 2.40314 28.5469 3.15428 28.5469 3.9375V9.84375C28.5469 10.627 28.858 11.3781 29.4118 11.9319C29.9657 12.4857 30.7168 12.7969 31.5 12.7969ZM41.3438 12.7969C42.127 12.7969 42.8781 12.4857 43.4319 11.9319C43.9858 11.3781 44.2969 10.627 44.2969 9.84375V3.9375C44.2969 3.15428 43.9858 2.40314 43.4319 1.84933C42.8781 1.29551 42.127 0.984375 41.3438 0.984375C40.5605 0.984375 39.8094 1.29551 39.2556 1.84933C38.7018 2.40314 38.3906 3.15428 38.3906 3.9375V9.84375C38.3906 10.627 38.7018 11.3781 39.2556 11.9319C39.8094 12.4857 40.5605 12.7969 41.3438 12.7969ZM61.8188 25.9875L55.125 31.0078V45.2812C55.125 47.6309 54.1916 49.8843 52.5302 51.5458C50.8687 53.2072 48.6153 54.1406 46.2656 54.1406H16.7344C14.3847 54.1406 12.1313 53.2072 10.4699 51.5458C8.80841 49.8843 7.87501 47.6309 7.87501 45.2812V31.0078L1.18126 25.9875C0.554688 25.5176 0.140456 24.818 0.0296925 24.0426C-0.0810712 23.2673 0.120707 22.4797 0.590637 21.8531C1.06057 21.2266 1.76016 20.8123 2.5355 20.7016C3.31085 20.5908 4.09844 20.7926 4.72501 21.2625L7.87501 23.625V21.6562C7.87501 20.3509 8.39357 19.099 9.3166 18.176C10.2396 17.2529 11.4915 16.7344 12.7969 16.7344H50.2031C51.5085 16.7344 52.7604 17.2529 53.6834 18.176C54.6065 19.099 55.125 20.3509 55.125 21.6562V23.625L58.275 21.2625C58.9016 20.7926 59.6892 20.5908 60.4645 20.7016C61.2399 20.8123 61.9395 21.2266 62.4094 21.8531C62.8793 22.4797 63.0811 23.2673 62.9703 24.0426C62.8596 24.818 62.4453 25.5176 61.8188 25.9875ZM49.2188 22.6406H13.7813V45.2812C13.7813 46.0645 14.0924 46.8156 14.6462 47.3694C15.2 47.9232 15.9512 48.2344 16.7344 48.2344H46.2656C47.0489 48.2344 47.8 47.9232 48.3538 47.3694C48.9076 46.8156 49.2188 46.0645 49.2188 45.2812V22.6406Z" fill="white"/>
</g>
<defs>
<clipPath id="clip0_35_4">
<rect width="63" height="63" fill="white"/>
</clipPath>
</defs>
</svg>
