<svg width="67" height="67" viewBox="0 0 67 67" fill="none" xmlns="http://www.w3.org/2000/svg">
<path d="M33.5001 61.4167L32.1042 33.5L22.3334 30.7084H2.79175V25.125H19.5417L39.0834 11.1667L42.7126 15.424L31.1272 23.7292H39.0834L60.8584 11.1667L64.2084 15.075L40.4792 33.5L39.0834 61.4167H33.5001ZM16.7501 22.3334C15.2147 22.3334 13.8998 21.7862 12.8055 20.6919C11.7111 19.5975 11.1649 18.2836 11.1667 16.75C11.1667 15.2146 11.7139 13.8997 12.8082 12.8054C13.9026 11.7111 15.2165 11.1648 16.7501 11.1667C18.2855 11.1667 19.6004 11.7139 20.6947 12.8082C21.789 13.9025 22.3353 15.2165 22.3334 16.75C22.3334 18.2854 21.7862 19.6003 20.6919 20.6946C19.5976 21.789 18.2836 22.3352 16.7501 22.3334Z" fill="white"/>
</svg>
